<svg width="12" height="14" fill="none" xmlns="http://www.w3.org/2000/svg"><path d="M7.739 12.127a.47.47 0 0 1 .07.654c-.118.148-.254.28-.398.39a2.33 2.33 0 0 1-3.268-.392.469.469 0 0 1 .073-.653.456.456 0 0 1 .646.074c.23.292.57.482.942.527.374.044.75-.061 1.051-.297.089-.067.169-.145.238-.232.159-.2.448-.232.646-.07ZM1.435 5l.008-.397c.006-.17.015-.328.028-.482.2-2.158 2.26-3.788 4.506-3.788h.047c2.245 0 4.305 1.629 4.512 3.79.012.138.017.26.018.432v.525l.003.13.006.13.03.125c.094.347.259.672.485.954l.1.118.041.053c.271.405.426.875.448 1.383v.268c-.02.601-.24 1.181-.644 1.664a3.2 3.2 0 0 1-2.031.992c-1.99.216-3.999.216-5.983 0A3.25 3.25 0 0 1 .95 9.883a2.714 2.714 0 0 1-.617-1.774V7.95A2.72 2.72 0 0 1 .78 6.587l.045-.058c.312-.342.526-.762.618-1.214l-.01.041L1.435 5Zm4.59-3.736h-.048c-1.8 0-3.438 1.297-3.59 2.94-.008.09-.014.184-.02.282l-.01.311-.004.613-.01.094A3.5 3.5 0 0 1 1.5 7.16l.033-.038-.06.097a1.78 1.78 0 0 0-.208.627l-.012.127v.145a1.77 1.77 0 0 0 .383 1.144c.383.404.902.656 1.465.71a26.85 26.85 0 0 0 5.8 0 2.278 2.278 0 0 0 1.438-.688c.274-.329.42-.744.409-1.182v-.109a1.724 1.724 0 0 0-.29-.881l.01.016-.091-.107A3.554 3.554 0 0 1 9.7 5.689l-.043-.184-.009-.061c-.006-.09-.01-.17-.012-.267l-.002-.603a4.451 4.451 0 0 0-.014-.365C9.463 2.56 7.823 1.264 6.024 1.264Z" fill="#ABBBC2"/></svg>