<svg width="14" height="14" fill="none" xmlns="http://www.w3.org/2000/svg"><path d="m8.3.811.122.113.48.48c.164.163.38.264.61.287l.099.005h.685c1.07 0 1.944.836 2.005 1.89l.003.118v.685c0 .233.08.457.226.635l.066.074.479.479c.754.75.788 1.952.097 2.743l-.09.097-.486.485c-.163.164-.264.38-.287.61l-.005.099v.686c0 1.069-.836 1.942-1.89 2.003l-.118.004h-.685c-.233 0-.457.08-.635.226l-.074.066-.478.478a2.007 2.007 0 0 1-2.744.098l-.103-.097-.478-.478a1.01 1.01 0 0 0-.61-.288l-.1-.005h-.686a2.008 2.008 0 0 1-2.003-1.89l-.004-.117V9.61c0-.232-.08-.457-.226-.635l-.066-.073-.478-.48A2.007 2.007 0 0 1 .828 5.68l.09-.096.485-.485c.164-.166.266-.382.288-.611l.005-.1v-.684l.004-.118a2.008 2.008 0 0 1 1.886-1.887l.117-.003h.686c.233 0 .457-.08.635-.225l.074-.066.478-.48C6.327.171 7.53.138 8.301.811Zm-1.939.75-.076.07-.481.482c-.345.342-.801.547-1.283.579l-.132.004h-.686c-.525 0-.956.403-1.003.916l-.004.092v.685c0 .486-.176.953-.494 1.319l-.09.097-.486.485c-.367.37-.389.953-.064 1.35l.07.076.48.48c.342.344.548.8.58 1.283l.004.132v.686c0 .525.403.957.916 1.003l.091.004h.686c.486 0 .954.176 1.319.495l.097.09.482.482c.372.37.956.392 1.352.067l.077-.07.48-.48c.345-.343.8-.548 1.283-.58l.132-.004h.685c.526 0 .958-.402 1.004-.916l.004-.091V9.61c0-.486.177-.955.495-1.319l.09-.096.485-.485c.367-.37.389-.954.064-1.35l-.07-.076-.48-.481a2.007 2.007 0 0 1-.58-1.283l-.004-.132v-.685c0-.526-.403-.958-.916-1.004l-.092-.004h-.685c-.486 0-.954-.176-1.319-.494l-.097-.09-.458-.46-.027-.025a1.008 1.008 0 0 0-1.349-.065Zm2.703 6.8c.047.047.087.1.114.16a.575.575 0 0 1 0 .38.568.568 0 0 1-.114.167.5.5 0 0 1-.706 0 .548.548 0 0 1-.147-.353.517.517 0 0 1 .147-.353.516.516 0 0 1 .706 0Zm.003-3.428a.5.5 0 0 1 .048.65l-.048.057L5.64 9.067a.5.5 0 0 1-.755-.651l.048-.056L8.36 4.933a.5.5 0 0 1 .707 0Zm-3.43.002c.094.093.147.22.147.354a.444.444 0 0 1-.033.186.671.671 0 0 1-.113.167.515.515 0 0 1-.354.147.546.546 0 0 1-.353-.147.642.642 0 0 1-.107-.167.476.476 0 0 1 0-.38.45.45 0 0 1 .107-.16.515.515 0 0 1 .707 0Z" fill="#EA7C69"/></svg>